<?xml version="1.0" encoding="utf-8"?>
<!-- Generator: Adobe Illustrator 16.0.0, SVG Export Plug-In . SVG Version: 6.00 Build 0)  -->
<!DOCTYPE svg PUBLIC "-//W3C//DTD SVG 1.1//EN" "http://www.w3.org/Graphics/SVG/1.1/DTD/svg11.dtd">
<svg version="1.1" xmlns="http://www.w3.org/2000/svg" xmlns:xlink="http://www.w3.org/1999/xlink" x="0px" y="0px" width="1000px"
	 height="1000px" viewBox="0 0 1000 1000" style="enable-background:new 0 0 1000 1000;" xml:space="preserve">
<g id="Layer_1">
	<circle style="fill:#3498DB;" cx="500" cy="500" r="500"/>
</g>
<g id="shadow">
	<path style="opacity:0.1;" d="M967.807,676.884L678.992,388.07l-6.367-0.57L568.25,401.25l-67.75-66.729L479,350.5L279.304,780.696
		l219.295,219.295c0.467,0.001,0.934,0.009,1.401,0.009C713.865,1000,896.365,865.727,967.807,676.884z"/>
</g>
<g id="test_tube">
	<path style="fill:#FFFFFF;" d="M683,397.5c0,6.9-4.7,12.5-10.5,12.5h-109c-5.8,0-10.5-5.6-10.5-12.5c0-3.45,1.18-6.58,3.08-8.84
		c1.9-2.26,4.52-3.66,7.42-3.66h109C678.3,385,683,390.6,683,397.5z"/>
	<path style="fill:#FFFFFF;" d="M619,420.99V744c-50,0-51-58-51-58V416L619,420.99z"/>
	<path style="fill:#E2E2E2;" d="M670,410v276c0,0-1,58-51,58v-30c8.43,0,12.72-2.69,16.41-10.28c3.38-6.96,4.439-15.3,4.59-18.26
		V520h-21v-99.01L568,416v-6H670z"/>
	<path style="fill:#134660;" d="M640,520v165.46c-0.15,2.96-1.21,11.3-4.59,18.26C631.72,711.31,627.43,714,619,714V520H640z"/>
	<path style="fill:#17537D;" d="M619,520v194c-7.49,0-12.65-1.84-16.88-11.27c-3.49-7.79-4.07-16.211-4.12-17.16V520H619z"/>
	<path style="fill:#134660;" d="M654.35,268.495c0,11.149-9.029,20.505-20.18,20.505H634v-41h0.17
		C645.32,248,654.35,257.354,654.35,268.495z"/>
	<path style="fill:#17537D;" d="M614,268.495c0,11.149,9.029,20.505,20.18,20.505H634v-41h0.18C623.029,248,614,257.354,614,268.495
		z"/>
	<path style="fill:#134660;" d="M711.017,215.494c0,13.729-11.118,25.506-24.848,25.506H686v-51h0.169
		C699.898,190,711.017,201.776,711.017,215.494z"/>
	<path style="fill:#17537D;" d="M661.333,215.494c0,13.729,11.118,25.506,24.848,25.506H686v-51h0.181
		C672.451,190,661.333,201.776,661.333,215.494z"/>
</g>
<g id="beaker">
	<path style="fill:#FFFFFF;" d="M442,358v427H292.41c-21.92,0-22.45-17.98-14.23-36.22L391,484.42V358H442z"/>
	<polygon style="fill:#17537D;" points="442,588 442,755 308.14,755 379.41,588 	"/>
	<path style="fill:#FFFFFF;" d="M506,345.5c0,6.9-4.7,12.5-10.5,12.5h-109c-5.8,0-10.5-5.6-10.5-12.5c0-3.45,1.18-6.58,3.08-8.84
		c1.9-2.26,4.52-3.66,7.42-3.66h109C501.3,333,506,338.6,506,345.5z"/>
	<path style="fill:#E2E2E2;" d="M605.06,748.78L491,484.42V374v-16h-49h-51v6l51,5.1V588h61.01l72.061,167H442v30h148.86
		C612.78,785,613.28,767.02,605.06,748.78z"/>
	<polygon style="fill:#134660;" points="575.07,755 442,755 442,588 503.01,588 	"/>
	<path style="fill:#134660;" d="M504.23,249.77c0,13.68-11.09,24.77-24.771,24.77c-0.149,0-0.31,0-0.46-0.01v-49.52
		c0.15-0.01,0.311-0.01,0.46-0.01C493.141,225,504.23,236.09,504.23,249.77z"/>
	<path style="fill:#134660;" d="M442.5,199.75c0,6.68-5.42,12.1-12.1,12.1c-0.13,0-0.27,0-0.4-0.01v-24.17
		c0.13-0.01,0.27-0.01,0.4-0.01C437.08,187.66,442.5,193.08,442.5,199.75z"/>
	<path style="fill:#134660;" d="M521.35,167.495c0,11.149-9.029,20.505-20.18,20.505H501v-41h0.17
		C512.32,147,521.35,156.354,521.35,167.495z"/>
	<path style="fill:#17537D;" d="M481,167.495c0,11.149,9.029,20.505,20.18,20.505H501v-41h0.18C490.029,147,481,156.354,481,167.495
		z"/>
	<circle style="fill:#17537D;" cx="414.875" cy="591.375" r="21.875"/>
	<path style="fill:#17537D;" d="M479,225.01v49.52c-13.46-0.24-24.3-11.23-24.3-24.76S465.54,225.25,479,225.01z"/>
	<path style="fill:#17537D;" d="M430,187.67v24.17c-6.5-0.21-11.69-5.54-11.69-12.09C418.31,193.21,423.5,187.88,430,187.67z"/>
	<path style="fill:#7DB8D8;" d="M241.036,736"/>
</g>
</svg>
